# xmcd
#
# Track frame offsets:
#	150
#	13949
#	28808
#	47746
#	71289
#	86907
#	104727
#	117158
#	134850
#	151570
#	164591
#	192121
#	213802
#	230156
#	258338
#	275531
#	298321
#	315670
#
# Disc length: 4436 seconds
#
# Revision: 1
# Processed by: cddbd v1.5.2PL0 Copyright (c) Steve Scherf et al.
# Submitted via: audiograbber 1.83.01
#
DISCID=12115212
DTITLE=MOJO BLUES BAND - THE VERY BEST OF MOJO BLUES BAND
DYEAR=2004
DGENRE=Blues
TTITLE0=Rosa Lee
TTITLE1=Hound Dog
TTITLE2=Chicago Is Calling
TTITLE3=Im Not That Easy
TTITLE4=Young Fashioned Ways
TTITLE5=Accordion Boogie
TTITLE6=Let It Rain
TTITLE7=Wintertime Is Coming
TTITLE8=Alligator Walk
TTITLE9=Strollin With Bone
TTITLE10=Hell On Earth
TTITLE11=Louisiana Train
TTITLE12=Banana Peel Slide
TTITLE13=Im On My Way Back Home
TTITLE14=Masada
TTITLE15=Signals Of Love
TTITLE16=Shame Shame Shame
TTITLE17=Down In The Alley
EXTD=
EXTT0=
EXTT1=
EXTT2=
EXTT3=
EXTT4=
EXTT5=
EXTT6=
EXTT7=
EXTT8=
EXTT9=
EXTT10=
EXTT11=
EXTT12=
EXTT13=
EXTT14=
EXTT15=
EXTT16=
EXTT17=
PLAYORDER=
